<svg xmlns="http://www.w3.org/2000/svg" fill="none" viewBox="0 0 48 48">
  <path fill="#6b3df5" d="M23.99 31C26.1967 31 28.0833 30.22 29.65 28.66C31.2167 27.1 32 25.2167 32 23.01C32 20.8033 31.22 18.9167 29.66 17.35C28.1 15.7833 26.2167 15 24.01 15C21.8033 15 19.9167 15.78 18.35 17.34C16.7833 18.9 16 20.7833 16 22.99C16 25.1967 16.78 27.0833 18.34 28.65C19.9 30.2167 21.7833 31 23.99 31ZM22.5 46V42H18.5V39H22.5V33.95C19.7557 33.48 17.4862 32.2208 15.6915 30.1725C13.8972 28.1242 13 25.7333 13 23C13 21.8 13.1833 20.6315 13.55 19.4945C13.9167 18.3575 14.4667 17.3093 15.2 16.35L13.1 14.25L10.3 17.05L8.2 14.95L11 12.15L6 7.15V13H3V2H14V5H8.15L13.15 10L15.95 7.2L18.05 9.3L15.25 12.1L17.4 14.25C18.3667 13.5167 19.4083 12.9583 20.525 12.575C21.6417 12.1917 22.8 12 24 12C25.2 12 26.3667 12.1833 27.5 12.55C28.6333 12.9167 29.6833 13.4667 30.65 14.2L39.85 5H34V2H45V13H42V7.15L32.8 16.35C33.5333 17.3167 34.0833 18.3628 34.45 19.4885C34.8167 20.6145 35 21.785 35 23C35 25.7333 34.1028 28.1242 32.3085 30.1725C30.5138 32.2208 28.2443 33.48 25.5 33.95V39H29.5V42H25.5V46H22.5Z" stroke-width="1"></path>
</svg>